# xmcd
#
# Track frame offsets: 
#        150
#        20031
#        37045
#        50496
#        66650
#
# Disc length: 1107 seconds
#
# Revision: 0
# Processed by: cddbd v1.5.1PL0 Copyright (c) Steve Scherf et al.
# Submitted via: ExactAudioCopy v0.95a5
#
DISCID=49045105
DTITLE=The Swains - Three Hearts
DYEAR=1900
DGENRE=Country
TTITLE0=Three Hearts
TTITLE1=The Game
TTITLE2=Can't Let Go
TTITLE3=Won't Be Lonely
TTITLE4=Right To Cry
EXTD=
EXTT0=
EXTT1=
EXTT2=
EXTT3=
EXTT4=
PLAYORDER=
